<svg height="32" viewBox="0 0 32 32" width="32" xmlns="http://www.w3.org/2000/svg"><path d="m16 13-5 5 1.41 1.41 2.59-2.58v11.17h-9v2h9a2 2 0 0 0 2-2v-11.17l2.59 2.58 1.41-1.41z"/><path d="m23.5 22h-.5v-2h.5a4.4975 4.4975 0 0 0 .3564-8.981l-.8154-.0639-.0986-.812a6.9938 6.9938 0 0 0 -13.8838 0l-.0991.812-.8155.0639a4.4975 4.4975 0 0 0 .356 8.981h.5v2h-.5a6.4973 6.4973 0 0 1 -1.3-12.8638 8.9943 8.9943 0 0 1 17.6006 0 6.4974 6.4974 0 0 1 -1.3006 12.8638z"/><path d="m0 0h32v32h-32z" fill="none"/></svg>