<svg id="组_88882" data-name="组 88882" xmlns="http://www.w3.org/2000/svg" width="34.57" height="23.11" viewBox="0 0 34.57 23.11">
  <path id="路径_147366" data-name="路径 147366" d="M0,0H34.57V23.11H0Z" fill="#dd4631"/>
  <path id="路径_147367" data-name="路径 147367" d="M83.344,80.04l1.068,3.567,3.507-.014-2.83,2.147,1.047,3.317-2.792-2.066-2.789,2.066L81.6,85.74l-2.83-2.147,3.507.014,1.068-3.567ZM94.5,86.759l.373,1.122,1.116-.04-.878.712.367,1.042-.907-.626-.867.683.3-1.062-.918-.654L94.2,87.9l.3-1.145Zm-.634-4.7.8.864,1-.505-.508,1.016.76.795-1.082-.189-.508.987-.164-1.093-1.1-.207,1-.5-.192-1.168Zm-1.88-3.292-.123,1.177,1.03.439-1.09.273-.1,1.1-.562-.956-1.07.253.712-.838-.565-.984,1.024.445.746-.91Zm-.006,11.356-.1,1.177,1.033.419-1.082.293-.08,1.1-.58-.944-1.065.275.694-.855-.583-.973,1.033.425.729-.921Z" transform="translate(-76.992 -76.992)" fill="#ffde00"/>
</svg>
