<svg xmlns="http://www.w3.org/2000/svg" width="34.564" height="23.04" viewBox="0 0 34.564 23.04">
  <g id="组_88880" data-name="组 88880" transform="translate(-20.852 -140.428)">
    <path id="路径_147344" data-name="路径 147344" d="M23.273,141.964H57.752V164.95H23.273Z" transform="translate(-2.336 -1.482)" fill="#083f80"/>
    <path id="路径_147345" data-name="路径 147345" d="M23.273,370.036H57.752v6.814H23.273Z" transform="translate(-2.336 -221.509)" fill="#fff"/>
    <path id="路径_147346" data-name="路径 147346" d="M419,140.428v22.986h-6.814V140.428Z" transform="translate(-377.527 0)" fill="#fff"/>
    <path id="路径_147347" data-name="路径 147347" d="M57.752,162.4v2.545h-4.1L23.273,144.755v-2.791H27.3Z" transform="translate(-2.336 -1.482)" fill="#fff"/>
    <path id="路径_147348" data-name="路径 147348" d="M57.752,144.509v-2.545h-4.1L23.273,162.076v2.873H27.3Z" transform="translate(-2.336 -1.482)" fill="#fff"/>
    <path id="路径_147349" data-name="路径 147349" d="M23.272,143.77l9.276,6.239H35.34l-12.068-8.045Zm34.479,19.292-9.276-6.239H45.683l12.068,8.127ZM43.795,149.352v.657H45.6l12.15-8.045H54.713Zm-6.567,8.209v-.739H35.422l-12.15,8.127h3.037Zm1.231-15.6h4.023V164.95H38.459Z" transform="translate(-2.335 -1.482)" fill="#b7333c"/>
    <path id="路径_147350" data-name="路径 147350" d="M20.852,414.577v-4.022H55.413v4.023Z" transform="translate(0 -260.599)" fill="#b7333c"/>
  </g>
</svg>
