<svg xmlns="http://www.w3.org/2000/svg" width="34.565" height="23.11" viewBox="0 0 34.565 23.11">
  <g id="组_88881" data-name="组 88881" transform="translate(-1.255 -1.255)">
    <path id="路径_147352" data-name="路径 147352" d="M1.4,24.223H35.679V1.425H1.4v22.8Zm34.339.057v0Zm-34.48.085V1.255H35.82V24.336H1.255Z" transform="translate(0 0)" fill="#353636"/>
    <path id="路径_147353" data-name="路径 147353" d="M3.765,707.765H38.189v1.758H3.765Z" transform="translate(-2.453 -690.546)" fill="#fff"/>
    <path id="路径_147354" data-name="路径 147354" d="M3.765,629.96H38.189v1.758H3.765Zm0,7.061H38.189v1.758H3.765Z" transform="translate(-2.453 -614.499)" fill="#d64634"/>
    <path id="路径_147355" data-name="路径 147355" d="M3.765,550.9H38.189v1.758H3.765Z" transform="translate(-2.453 -537.227)" fill="#fff"/>
    <path id="路径_147356" data-name="路径 147356" d="M3.765,785.569H38.189v1.758H3.765Z" transform="translate(-2.453 -766.592)" fill="#d64634"/>
    <path id="路径_147357" data-name="路径 147357" d="M3.765,252.58H38.189v1.758H3.765Zm0-14.149H38.189v1.758H3.765Z" transform="translate(-2.453 -231.817)" fill="#fff"/>
    <path id="路径_147358" data-name="路径 147358" d="M3.765,473.1H38.189v1.758H3.765Z" transform="translate(-2.453 -461.181)" fill="#d64634"/>
    <path id="路径_147359" data-name="路径 147359" d="M3.765,82.824H38.189v1.758H3.765Z" transform="translate(-2.453 -79.726)" fill="#fff"/>
    <path id="路径_147360" data-name="路径 147360" d="M3.765,8.536H38.189v1.758H3.765Zm0-3.516H38.189V6.778H3.765Z" transform="translate(-2.453 -3.68)" fill="#d64634"/>
    <path id="路径_147361" data-name="路径 147361" d="M3.765,395.294H38.189v1.758H3.765Z" transform="translate(-2.453 -385.135)" fill="#fff"/>
    <path id="路径_147362" data-name="路径 147362" d="M3.765,317.49H38.189v1.758H3.765Z" transform="translate(-2.453 -309.089)" fill="#d64634"/>
    <path id="路径_147363" data-name="路径 147363" d="M3.765,5.02H20.977V19.141H3.765Z" transform="translate(-2.453 -3.68)" fill="#0050a2"/>
    <path id="路径_147364" data-name="路径 147364" d="M112.082,128.864a3.941,3.941,0,0,1,0-7.883,3.776,3.776,0,0,1,1.786.425,4.457,4.457,0,1,0-2.75,7.968,4.476,4.476,0,0,0,2.75-.936A4.144,4.144,0,0,1,112.082,128.864Z" transform="translate(-103.029 -116.522)" fill="#fcd300"/>
    <path id="路径_147365" data-name="路径 147365" d="M344.963,151.843l.312,2.354,1.333-1.985-.737,2.268,2.013-1.219-1.616,1.7,2.353-.2-2.212.822,2.212.822-2.353-.2,1.616,1.7-2.013-1.219.737,2.268-1.333-1.985-.312,2.354-.312-2.354-1.3,1.985.737-2.268-2.042,1.219,1.645-1.7-2.354.2,2.212-.822-2.212-.822,2.354.2-1.645-1.7,2.042,1.219-.737-2.268,1.3,1.985Z" transform="translate(-332.395 -147.185)" fill="#fcd300"/>
  </g>
</svg>
